<svg width="24" height="24" viewBox="0 0 16 16" fill="none" xmlns="http://www.w3.org/2000/svg">
<path d="M10.6876 5.40278C10.6876 5.64352 10.6545 5.88426 10.5882 6.125C10.5314 6.36574 10.432 6.58796 10.2901 6.79167C10.1481 6.98611 9.96349 7.16204 9.73631 7.31944C9.50913 7.46759 9.23462 7.5787 8.91278 7.65278V7.73611C9.19675 7.78241 9.46653 7.86111 9.72211 7.97222C9.97769 8.08333 10.2001 8.23611 10.3895 8.43056C10.5788 8.625 10.7255 8.86111 10.8296 9.13889C10.9432 9.41667 11 9.74537 11 10.125C11 10.625 10.8911 11.0602 10.6734 11.4306C10.4557 11.7917 10.1623 12.088 9.7931 12.3194C9.4334 12.5509 9.02164 12.7222 8.55781 12.8333C8.09398 12.9444 7.61596 13 7.12373 13C6.96281 13 6.75456 13 6.49899 13C6.25287 13 5.9831 12.9907 5.68966 12.9722C5.40568 12.963 5.11224 12.9444 4.80933 12.9167C4.51589 12.8889 4.24611 12.8472 4 12.7917V3.20833C4.17985 3.18056 4.38337 3.15278 4.61055 3.125C4.84719 3.09722 5.09804 3.07407 5.36308 3.05556C5.62813 3.03704 5.8979 3.02315 6.17241 3.01389C6.45639 3.00463 6.73563 3 7.01014 3C7.47397 3 7.9236 3.03704 8.35903 3.11111C8.80392 3.17593 9.19675 3.2963 9.53753 3.47222C9.88776 3.64815 10.167 3.89352 10.3753 4.20833C10.5835 4.52315 10.6876 4.9213 10.6876 5.40278ZM7.13793 11.4306C7.37458 11.4306 7.60176 11.4028 7.81947 11.3472C8.04665 11.2917 8.24544 11.2083 8.41582 11.0972C8.58621 10.9769 8.72346 10.8287 8.82759 10.6528C8.93171 10.4769 8.98377 10.2685 8.98377 10.0278C8.98377 9.72222 8.92224 9.48148 8.79919 9.30556C8.67613 9.12963 8.51521 8.99537 8.31643 8.90278C8.11765 8.80093 7.8952 8.73611 7.64909 8.70833C7.40298 8.68056 7.15686 8.66667 6.91075 8.66667H6C6 9 6 11 6 11.3771C6.03013 11.3816 6.06393 11.3856 6.10142 11.3889C6.20554 11.3981 6.3144 11.4074 6.42799 11.4167C6.55105 11.4167 6.6741 11.4213 6.79716 11.4306C6.92968 11.4306 7.04327 11.4306 7.13793 11.4306ZM6.49899 7.22222C6.63151 7.22222 6.78296 7.21759 6.95335 7.20833C7.1332 7.19907 7.27992 7.18519 7.39351 7.16667C7.75321 7.05556 8.06085 6.88889 8.31643 6.66667C8.58147 6.44444 8.714 6.15278 8.714 5.79167C8.714 5.55093 8.66667 5.35185 8.57201 5.19444C8.47735 5.03704 8.34956 4.91204 8.18864 4.81944C8.03719 4.72685 7.86207 4.66204 7.66329 4.625C7.4645 4.58796 7.25625 4.56944 7.03854 4.56944C6.79243 4.56944 6.56525 4.57407 6.357 4.58333C6.21644 4.58958 6.09744 4.59794 6 4.60841C6 5 5.9823 6.85673 6 7.22222H6.49899Z" fill="#fff"/>
</svg>
