<svg viewBox="0 0 24 24" fill="none" xmlns="http://www.w3.org/2000/svg"><path d="M14 12.5a1 1 0 1 0 2 0h-2Zm6.172 1.328.707.708-.707-.708ZM15 19l-.707-.707A1 1 0 0 0 15 20v-1Zm6 1a1 1 0 1 0 0-2v2ZM4 5a1 1 0 0 0-2 0h2ZM2 19a1 1 0 1 0 2 0H2ZM12 5a1 1 0 1 0-2 0h2Zm-2 14a1 1 0 1 0 2 0h-2Zm6-6.5V12h-2v.5h2Zm2-2.5h.172V8H18v2Zm1.465 3.121-5.172 5.172 1.414 1.414 5.172-5.171-1.415-1.415ZM15 20h6v-2h-6v2Zm5-8.172c0 .486-.193.95-.535 1.293l1.414 1.415a3.828 3.828 0 0 0 1.12-2.708h-2ZM18.172 10c1.01 0 1.828.819 1.828 1.828h2A3.828 3.828 0 0 0 18.172 8v2ZM16 12a2 2 0 0 1 2-2V8a4 4 0 0 0-4 4h2ZM2 5v7h2V5H2Zm2 14v-7H2v7h2Zm6-14v7h2V5h-2Zm2 14v-7h-2v7h2Zm-9-6h8v-2H3v2Z" fill="currentColor"/></svg>
