<svg width="24" height="24" viewBox="0 0 16 16" fill="none" xmlns="http://www.w3.org/2000/svg">
<path d="M3.23047 6.42773C3.71094 5.83789 4.33594 5.54297 5.10547 5.54297C6.44531 5.54297 7.12109 6.29883 7.13281 7.81055V12H6.04883V7.80469C6.04492 7.34766 5.93945 7.00977 5.73242 6.79102C5.5293 6.57227 5.21094 6.46289 4.77734 6.46289C4.42578 6.46289 4.11719 6.55664 3.85156 6.74414C3.58594 6.93164 3.37891 7.17773 3.23047 7.48242V12H2.14648V3H3.23047V6.42773Z" fill="#fff"/>
<path d="M14.2344 12H8.64453V11.2207L11.5977 7.93945C12.0352 7.44336 12.3359 7.04102 12.5 6.73242C12.668 6.41992 12.752 6.09766 12.752 5.76562C12.752 5.32031 12.6172 4.95508 12.3477 4.66992C12.0781 4.38477 11.7188 4.24219 11.2695 4.24219C10.7305 4.24219 10.3105 4.39648 10.0098 4.70508C9.71289 5.00977 9.56445 5.43555 9.56445 5.98242H8.48047C8.48047 5.19727 8.73242 4.5625 9.23633 4.07812C9.74414 3.59375 10.4219 3.35156 11.2695 3.35156C12.0625 3.35156 12.6895 3.56055 13.1504 3.97852C13.6113 4.39258 13.8418 4.94531 13.8418 5.63672C13.8418 6.47656 13.3066 7.47656 12.2363 8.63672L9.95117 11.1152H14.2344V12Z" fill="#fff"/>
</svg>
