<svg width="24" height="24" viewBox="0 0 24 24" fill="none" xmlns="http://www.w3.org/2000/svg">
<path d="M4.8457 9.6416C5.56641 8.75684 6.50391 8.31445 7.6582 8.31445C9.66797 8.31445 10.6816 9.44824 10.6992 11.7158V18H9.07324V11.707C9.06738 11.0215 8.90918 10.5146 8.59863 10.1865C8.29395 9.8584 7.81641 9.69434 7.16602 9.69434C6.63867 9.69434 6.17578 9.83496 5.77734 10.1162C5.37891 10.3975 5.06836 10.7666 4.8457 11.2236V18H3.21973V4.5H4.8457V9.6416Z" fill="white"/>
<path d="M15.3311 10.8105H16.5527C17.3203 10.7988 17.9238 10.5967 18.3633 10.2041C18.8027 9.81152 19.0225 9.28125 19.0225 8.61328C19.0225 7.11328 18.2754 6.36328 16.7812 6.36328C16.0781 6.36328 15.5156 6.56543 15.0938 6.96973C14.6777 7.36816 14.4697 7.89844 14.4697 8.56055H12.8438C12.8438 7.54688 13.2129 6.70605 13.9512 6.03809C14.6953 5.36426 15.6387 5.02734 16.7812 5.02734C17.9883 5.02734 18.9346 5.34668 19.6201 5.98535C20.3057 6.62402 20.6484 7.51172 20.6484 8.64844C20.6484 9.20508 20.4668 9.74414 20.1035 10.2656C19.7461 10.7871 19.2568 11.1768 18.6357 11.4346C19.3389 11.6572 19.8809 12.0264 20.2617 12.542C20.6484 13.0576 20.8418 13.6875 20.8418 14.4316C20.8418 15.5801 20.4668 16.4912 19.7168 17.165C18.9668 17.8389 17.9912 18.1758 16.79 18.1758C15.5889 18.1758 14.6104 17.8506 13.8545 17.2002C13.1045 16.5498 12.7295 15.6914 12.7295 14.625H14.3643C14.3643 15.2988 14.584 15.8379 15.0234 16.2422C15.4629 16.6465 16.0518 16.8486 16.79 16.8486C17.5752 16.8486 18.1758 16.6436 18.5918 16.2334C19.0078 15.8232 19.2158 15.2344 19.2158 14.4668C19.2158 13.7227 18.9873 13.1514 18.5303 12.7529C18.0732 12.3545 17.4141 12.1494 16.5527 12.1377H15.3311V10.8105Z" fill="white"/>
</svg>
