<svg viewBox="0 0 24 24" fill="none" xmlns="http://www.w3.org/2000/svg"><path d="M15 8a1 1 0 1 0 0 2V8Zm6 1 .707.707A1 1 0 0 0 21 8v1Zm-4 4-.707-.707A1 1 0 0 0 17 14v-1Zm-.886 3.666a1 1 0 1 0-1.886.665l1.886-.665ZM4 5a1 1 0 0 0-2 0h2ZM2 19a1 1 0 1 0 2 0H2ZM12 5a1 1 0 1 0-2 0h2Zm-2 14a1 1 0 1 0 2 0h-2Zm5-9h6V8h-6v2Zm5.293-1.707-4 4 1.414 1.414 4-4-1.414-1.414ZM17 14h1v-2h-1v2Zm1 0a2 2 0 0 1 2 2h2a4 4 0 0 0-4-4v2Zm2 2a2 2 0 0 1-2 2v2a4 4 0 0 0 4-4h-2Zm-2 2a2 2 0 0 1-1.155-.367l-1.155 1.632A4 4 0 0 0 18 20v-2Zm-1.155-.367a2 2 0 0 1-.731-.967l-1.886.665a4 4 0 0 0 1.462 1.934l1.155-1.632ZM2 5v7h2V5H2Zm2 14v-7H2v7h2Zm6-14v7h2V5h-2Zm2 14v-7h-2v7h2Zm-9-6h8v-2H3v2Z" fill="currentColor"/></svg>
