<svg width="24" height="24" viewBox="0 0 24 24" fill="none" xmlns="http://www.w3.org/2000/svg">
<path d="M4.8457 9.6416C5.56641 8.75684 6.50391 8.31445 7.6582 8.31445C9.66797 8.31445 10.6816 9.44824 10.6992 11.7158V18H9.07324V11.707C9.06738 11.0215 8.90918 10.5146 8.59863 10.1865C8.29395 9.8584 7.81641 9.69434 7.16602 9.69434C6.63867 9.69434 6.17578 9.83496 5.77734 10.1162C5.37891 10.3975 5.06836 10.7666 4.8457 11.2236V18H3.21973V4.5H4.8457V9.6416Z" fill="white"/>
<path d="M19.8311 13.7021H21.6064V15.0293H19.8311V18H18.1963V15.0293H12.3691V14.0713L18.0996 5.20312H19.8311V13.7021ZM14.2148 13.7021H18.1963V7.42676L18.0029 7.77832L14.2148 13.7021Z" fill="white"/>
</svg>
