<svg width="24" height="24" fill="none" xmlns="http://www.w3.org/2000/svg"><path d="M18.954 9.298a1 1 0 0 0-1.909-.596l1.91.596ZM15.5 17l-.954-.298A1 1 0 0 0 15.5 18v-1Zm5.5 1a1 1 0 1 0 0-2v2Zm0-4a1 1 0 1 0-2 0h2Zm-2 5a1 1 0 1 0 2 0h-2ZM4 5a1 1 0 0 0-2 0h2ZM2 19a1 1 0 1 0 2 0H2ZM12 5a1 1 0 1 0-2 0h2Zm-2 14a1 1 0 1 0 2 0h-2Zm7.046-10.298-2.5 8 1.909.596 2.5-8-1.91-.596ZM15.5 18H21v-2h-5.5v2Zm3.5-4v5h2v-5h-2ZM2 5v7h2V5H2Zm2 14v-7H2v7h2Zm6-14v7h2V5h-2Zm2 14v-7h-2v7h2Zm-9-6h8v-2H3v2Z" fill="currentColor"/></svg>
