<svg viewBox="0 0 24 24" fill="none" xmlns="http://www.w3.org/2000/svg"><path d="m19.5 13.433-.497.867.497-.867Zm.376-4.95a1 1 0 1 0-1.752-.966l1.752.966ZM4 5a1 1 0 0 0-2 0h2ZM2 19a1 1 0 1 0 2 0H2ZM12 5a1 1 0 1 0-2 0h2Zm-2 14a1 1 0 1 0 2 0h-2Zm9.734-1.994a2.01 2.01 0 0 1-2.736.727l-.995 1.734a4.01 4.01 0 0 0 5.46-1.457l-1.73-1.004Zm-2.736.727a1.974 1.974 0 0 1-.73-2.706l-1.73-1.004a3.974 3.974 0 0 0 1.465 5.444l.995-1.734Zm-.73-2.706a2.01 2.01 0 0 1 2.735-.727l.995-1.734a4.01 4.01 0 0 0-5.46 1.457l1.73 1.004Zm2.735-.727c.956.55 1.28 1.76.73 2.706l1.73 1.004a3.974 3.974 0 0 0-1.465-5.444l-.995 1.734Zm-2.725.708 3.598-6.525-1.752-.966-3.597 6.525 1.751.966ZM2 5v7h2V5H2Zm2 14v-7H2v7h2Zm6-14v7h2V5h-2Zm2 14v-7h-2v7h2Zm-9-6h8v-2H3v2Z" fill="currentColor"/></svg>
