<svg width="24" height="24" fill="none" xmlns="http://www.w3.org/2000/svg"><path d="m3 17 4.768-5.563c.424-.494.635-.741.887-.83.22-.079.462-.077.682.005.25.092.458.342.875.842l2.666 3.2c.39.467.583.7.82.794.208.083.438.093.653.03.244-.072.459-.287.888-.717l.497-.497c.438-.438.657-.656.904-.728a.999.999 0 0 1 .659.037c.238.098.432.34.818.823L21 18m0-10.8v9.6c0 1.12 0 1.68-.218 2.108a2 2 0 0 1-.874.874C19.48 20 18.92 20 17.8 20H6.2c-1.12 0-1.68 0-2.108-.218a2 2 0 0 1-.874-.874C3 18.48 3 17.92 3 16.8V7.2c0-1.12 0-1.68.218-2.108a2 2 0 0 1 .874-.874C4.52 4 5.08 4 6.2 4h11.6c1.12 0 1.68 0 2.108.218a2 2 0 0 1 .874.874C21 5.52 21 6.08 21 7.2ZM15 10a1 1 0 1 1 0-2 1 1 0 0 1 0 2Z" stroke="currentColor" stroke-width="2" stroke-linecap="round" stroke-linejoin="round"/></svg>
