<svg width="24" height="24" fill="none" xmlns="http://www.w3.org/2000/svg"><path d="M19 12V8.6c0-.56 0-.84-.109-1.054a1 1 0 0 0-.437-.437C18.24 7 17.96 7 17.4 7h-1.8c-.56 0-.84 0-1.054.109a1 1 0 0 0-.437.437C14 7.76 14 8.04 14 8.6v1.8c0 .56 0 .84.109 1.054a1 1 0 0 0 .437.437C14.76 12 15.04 12 15.6 12H19Zm0 0v2a3 3 0 0 1-3 3m-6-5V8.6c0-.56 0-.84-.109-1.054a1 1 0 0 0-.437-.437C9.24 7 8.96 7 8.4 7H6.6c-.56 0-.84 0-1.054.109a1 1 0 0 0-.437.437C5 7.76 5 8.04 5 8.6v1.8c0 .56 0 .84.109 1.054a1 1 0 0 0 .437.437C5.76 12 6.04 12 6.6 12H10Zm0 0v2a3 3 0 0 1-3 3" stroke="currentColor" stroke-width="2" stroke-linecap="round" stroke-linejoin="round"/></svg>
