<?xml version="1.0" standalone="no"?>
<!DOCTYPE svg PUBLIC "-//W3C//DTD SVG 20010904//EN"
 "http://www.w3.org/TR/2001/REC-SVG-20010904/DTD/svg10.dtd">
<svg version="1.0" xmlns="http://www.w3.org/2000/svg"
 width="1248.000000pt" height="1248.000000pt" viewBox="0 0 1248.000000 1248.000000"
 preserveAspectRatio="xMidYMid meet">
<metadata>
Created by potrace 1.14, written by Peter Selinger 2001-2017
</metadata>
<g transform="translate(0.000000,1248.000000) scale(0.100000,-0.100000)"
fill="#000000" stroke="none">
<path d="M5219 11015 c-2 -1 -29 -6 -59 -9 -67 -8 -234 -50 -293 -74 -16 -7
-31 -12 -34 -12 -12 0 -138 -63 -144 -72 -3 -5 -9 -9 -13 -9 -7 2 -94 -47
-113 -64 -36 -30 -43 -35 -48 -35 -4 0 -12 -6 -20 -12 -7 -7 -34 -31 -60 -53
-68 -58 -152 -143 -187 -192 -17 -24 -35 -43 -40 -43 -4 0 -8 -4 -8 -10 0 -5
-9 -21 -21 -34 -12 -13 -21 -28 -22 -33 0 -4 -8 -16 -18 -26 -9 -10 -29 -41
-44 -70 -16 -29 -31 -54 -34 -57 -5 -4 -42 -77 -46 -90 -1 -3 -11 -27 -23 -54
-43 -95 -91 -255 -108 -356 -8 -53 -13 -361 -5 -375 3 -5 6 -28 7 -50 3 -60
17 -148 34 -222 6 -24 15 -64 21 -90 6 -27 13 -55 16 -63 4 -8 8 -21 10 -27 1
-7 5 -19 6 -25 4 -13 13 -37 27 -73 33 -85 118 -244 164 -308 33 -46 189 -203
209 -210 9 -3 17 -11 17 -17 0 -6 5 -8 10 -5 6 3 10 2 10 -3 0 -5 15 -17 33
-26 17 -9 51 -28 74 -40 79 -44 230 -95 333 -111 126 -20 347 -25 465 -11 138
16 242 34 300 50 6 1 31 6 58 11 26 4 47 11 47 14 0 4 10 7 23 6 12 -1 27 1
32 5 6 4 26 11 45 15 32 7 256 78 290 92 8 3 17 7 20 8 3 1 16 6 30 12 14 6
52 20 85 32 33 12 67 25 75 28 8 3 17 7 20 8 3 1 16 6 30 12 14 6 61 22 105
37 44 15 89 31 100 35 11 5 43 16 70 26 28 9 57 19 65 22 8 3 20 7 25 8 16 4
238 75 255 82 17 7 27 10 55 17 11 2 79 23 150 45 72 23 137 43 145 44 8 2 25
9 38 15 12 7 22 10 22 7 0 -3 16 1 35 9 19 8 35 13 35 10 0 -3 9 0 21 6 11 6
28 13 38 15 10 2 67 20 127 40 60 21 114 38 119 40 6 1 24 7 40 14 17 6 55 21
85 32 335 126 552 277 647 449 52 93 72 251 48 370 -20 104 -114 233 -230 315
-68 48 -205 127 -205 118 0 -3 -8 1 -18 10 -10 10 -22 14 -25 10 -4 -3 -7 -2
-7 4 0 5 -6 10 -13 10 -8 0 -34 9 -58 20 -47 22 -281 106 -329 118 -3 1 -12 4
-20 8 -8 3 -49 15 -90 27 -41 12 -84 26 -95 30 -26 11 -92 31 -110 34 -8 1
-18 5 -21 9 -4 4 -17 7 -28 7 -12 0 -31 7 -42 15 -12 8 -24 12 -26 10 -3 -3
-20 1 -39 9 -19 8 -38 15 -44 16 -5 1 -19 6 -30 10 -11 4 -36 11 -55 15 -19 4
-39 11 -45 15 -5 4 -32 13 -60 20 -27 7 -54 17 -59 21 -6 5 -16 9 -23 9 -11 0
-239 81 -308 109 -100 41 -129 53 -189 80 -37 17 -74 31 -81 31 -7 0 -18 7
-25 15 -7 9 -15 14 -17 11 -3 -2 -31 9 -64 25 -51 26 -104 49 -119 54 -3 1
-22 9 -43 18 -43 18 -185 67 -213 72 -11 2 -19 4 -19 5 0 5 -198 46 -265 56
-48 7 -356 15 -361 9z"/>
<path d="M7351 7884 c-1 -6 -16 -11 -33 -11 -34 -1 -129 -10 -183 -17 -16 -3
-48 -7 -70 -10 -36 -5 -96 -16 -165 -31 -14 -3 -37 -7 -51 -10 -50 -9 -225
-56 -282 -75 -31 -11 -61 -20 -66 -20 -6 0 -22 -5 -38 -11 -15 -6 -28 -10 -28
-9 0 0 -32 -12 -72 -29 -39 -16 -74 -27 -77 -23 -3 3 -6 0 -6 -6 0 -7 -7 -12
-16 -12 -8 0 -25 -5 -37 -12 -12 -7 -26 -13 -32 -14 -30 -6 -41 -10 -53 -21
-7 -7 -20 -14 -28 -14 -18 -2 -24 -3 -54 -16 -48 -20 -196 -73 -260 -93 -36
-12 -72 -24 -80 -27 -8 -3 -20 -7 -26 -8 -6 -2 -56 -17 -110 -33 -54 -17 -119
-36 -144 -43 -53 -15 -51 -14 -70 -21 -13 -5 -70 -20 -130 -33 -71 -16 -156
-41 -158 -48 -2 -4 -8 -5 -12 -2 -5 3 -57 -6 -117 -21 -59 -14 -119 -27 -133
-29 -14 -2 -25 -4 -25 -5 0 -2 -33 -9 -65 -14 -14 -2 -32 -6 -40 -9 -13 -5
-41 -10 -120 -23 -14 -2 -36 -7 -50 -10 -14 -3 -36 -8 -50 -10 -14 -3 -72 -13
-130 -24 -58 -11 -120 -22 -137 -25 -18 -3 -46 -7 -63 -10 -16 -3 -45 -7 -62
-10 -18 -3 -44 -7 -58 -10 -33 -6 -70 -12 -150 -24 -36 -6 -76 -12 -90 -15
-14 -2 -47 -7 -75 -11 -27 -3 -67 -10 -87 -15 -21 -4 -38 -6 -38 -3 0 3 -6 0
-13 -6 -8 -6 -16 -8 -19 -6 -4 5 -290 -39 -398 -61 -14 -3 -36 -7 -50 -9 -82
-12 -136 -22 -280 -55 -52 -12 -103 -23 -114 -25 -10 -3 -44 -12 -75 -21 -31
-9 -58 -16 -61 -16 -3 0 -11 -4 -18 -10 -7 -6 -15 -8 -19 -5 -3 4 -11 2 -18
-3 -6 -5 -20 -11 -31 -13 -27 -5 -91 -33 -151 -65 -122 -66 -200 -150 -218
-237 -10 -45 -8 -153 3 -169 4 -6 7 -13 8 -16 2 -14 25 -62 34 -73 85 -107
163 -162 335 -238 38 -17 130 -51 145 -54 8 -2 16 -4 18 -5 1 -2 7 -4 12 -5 6
-1 11 -3 13 -5 1 -1 9 -3 17 -5 8 -2 71 -19 140 -38 69 -19 152 -41 185 -48
33 -7 65 -14 70 -15 31 -8 62 -15 80 -18 11 -2 34 -6 50 -10 47 -10 77 -16
115 -22 19 -3 43 -7 52 -10 19 -5 40 -10 89 -18 19 -3 45 -8 59 -11 22 -4 73
-14 160 -29 14 -2 36 -7 50 -10 34 -7 89 -17 125 -21 17 -2 30 -4 30 -5 0 -1
9 -3 20 -5 48 -7 104 -17 150 -25 87 -16 100 -19 120 -23 11 -3 45 -8 75 -13
55 -8 63 -9 78 -14 4 -1 12 -3 17 -4 6 -1 35 -6 65 -11 30 -5 57 -9 60 -10 26
-7 89 -19 105 -19 11 -1 26 -5 33 -9 6 -5 12 -6 12 -4 0 3 17 1 38 -4 20 -5
57 -11 82 -15 25 -3 49 -8 53 -11 4 -2 22 -6 40 -9 18 -2 97 -18 177 -34 181
-39 178 -38 220 -45 19 -3 49 -9 65 -15 17 -5 44 -12 60 -15 50 -8 68 -12 115
-25 25 -7 54 -14 65 -15 11 -2 30 -6 43 -9 38 -10 98 -25 127 -31 29 -6 164
-42 203 -54 18 -5 33 -10 35 -10 1 1 14 -2 28 -6 14 -3 32 -8 40 -9 8 -2 21
-6 29 -9 21 -8 416 -115 450 -122 8 -2 51 -12 95 -24 44 -11 91 -22 105 -25
14 -2 32 -7 40 -10 8 -3 26 -7 40 -10 14 -2 48 -10 75 -16 66 -16 94 -21 128
-23 15 -1 27 -4 27 -7 0 -3 8 -6 18 -7 9 -1 31 -4 47 -7 17 -2 50 -7 75 -11
25 -3 52 -9 60 -12 8 -3 29 -7 45 -8 17 -1 46 -6 65 -10 19 -4 51 -9 70 -11
36 -2 106 -12 150 -19 14 -2 57 -7 95 -10 39 -3 90 -7 115 -10 25 -3 102 -7
173 -10 70 -2 132 -7 137 -10 6 -3 10 -1 10 5 0 7 6 8 18 1 11 -6 24 -6 35 0
9 6 17 6 17 2 0 -4 14 -8 30 -8 17 0 30 3 30 7 0 4 13 3 29 -2 16 -4 32 -6 35
-3 3 3 45 7 93 8 151 6 250 17 418 45 141 25 147 26 165 33 8 3 27 8 43 11 15
3 39 9 55 12 15 3 34 8 42 11 8 3 20 7 25 9 71 18 282 99 301 115 6 5 14 6 17
2 4 -3 7 -1 7 5 0 7 7 12 15 12 8 0 37 14 65 30 28 17 53 30 56 30 5 0 175
111 184 120 3 3 37 31 75 62 113 92 222 212 302 333 52 79 123 211 123 230 0
8 5 15 11 15 6 0 9 6 6 14 -3 8 -2 16 2 18 8 3 59 158 67 203 2 14 6 37 9 53
14 73 17 104 17 190 0 53 -5 99 -12 106 -6 8 -10 18 -9 22 1 5 0 12 -1 17 -1
4 -3 10 -4 15 -1 4 -7 17 -14 30 -7 12 -10 22 -8 22 3 0 -8 23 -24 50 -17 28
-30 55 -30 60 0 6 -4 10 -8 10 -5 0 -14 11 -20 24 -6 14 -18 33 -26 43 -8 10
-37 45 -63 77 -64 78 -185 196 -287 279 -21 18 -44 37 -51 44 -7 7 -15 9 -19
6 -3 -4 -6 -2 -6 4 0 6 -19 23 -42 39 -24 16 -45 31 -48 34 -7 7 -122 83 -145
95 -22 12 -89 53 -120 72 -11 7 -37 21 -57 30 -21 10 -38 21 -38 25 0 5 -5 8
-10 8 -6 0 -52 20 -103 45 -51 24 -95 44 -98 42 -3 -1 -12 3 -20 10 -16 13
-266 113 -283 113 -6 0 -24 7 -40 15 -15 8 -32 13 -36 10 -5 -3 -12 0 -15 6
-4 5 -13 8 -21 5 -8 -3 -14 -2 -14 3 0 4 -6 8 -12 9 -7 1 -38 8 -68 17 -72 22
-191 52 -240 61 -40 7 -73 14 -100 20 -14 3 -38 7 -55 8 -16 2 -37 6 -45 9 -8
3 -44 9 -80 12 -36 4 -81 9 -100 11 -110 12 -187 16 -385 18 -121 2 -228 -1
-237 -6 -10 -5 -18 -3 -21 5 -3 7 -6 7 -6 1z"/>
<path d="M3740 4727 c-3 -3 -45 -8 -95 -11 -181 -12 -251 -17 -280 -20 -16 -2
-64 -7 -105 -10 -41 -4 -86 -9 -100 -11 -14 -2 -47 -7 -75 -10 -27 -3 -61 -8
-75 -10 -14 -2 -49 -7 -78 -10 -30 -2 -57 -7 -60 -9 -4 -2 -31 -7 -61 -11 -30
-4 -63 -9 -75 -11 -22 -4 -61 -12 -109 -20 -43 -7 -335 -72 -402 -89 -33 -9
-69 -18 -80 -20 -11 -2 -45 -10 -75 -19 -30 -8 -66 -18 -80 -22 -14 -3 -70
-20 -125 -36 -55 -16 -104 -31 -110 -33 -5 -1 -13 -2 -16 -1 -3 0 -12 -4 -20
-10 -8 -7 -30 -15 -49 -19 -19 -4 -40 -11 -45 -16 -6 -4 -22 -10 -35 -13 -30
-6 -247 -88 -307 -116 -24 -11 -45 -20 -48 -20 -6 0 -67 -27 -152 -67 -29 -14
-55 -24 -59 -23 -4 1 -10 -2 -13 -7 -3 -4 -44 -27 -91 -50 -47 -24 -116 -61
-155 -83 -38 -22 -81 -46 -95 -52 -14 -7 -27 -15 -30 -18 -3 -3 -57 -40 -120
-82 -63 -43 -127 -88 -142 -100 -15 -13 -36 -30 -48 -39 -111 -86 -242 -240
-289 -339 -73 -154 -41 -271 93 -342 69 -36 183 -68 295 -84 19 -2 48 -7 65
-10 79 -14 303 -32 494 -39 64 -3 117 -5 117 -6 0 -1 158 -8 317 -13 75 -2
141 -7 147 -10 5 -4 12 -2 16 4 4 6 11 8 16 4 11 -6 196 -16 341 -18 54 0 98
-3 98 -6 0 -3 28 -6 63 -6 69 -2 262 -12 262 -15 0 0 29 -2 65 -4 36 -2 88 -6
115 -9 28 -3 82 -8 120 -10 39 -3 93 -7 121 -10 54 -7 131 -14 199 -21 22 -1
54 -5 70 -8 17 -3 62 -8 100 -12 39 -3 84 -8 101 -11 17 -3 46 -6 65 -9 79 -9
136 -16 159 -21 14 -3 43 -7 65 -10 38 -4 56 -7 115 -18 31 -5 118 -18 145
-21 11 -2 36 -6 55 -10 19 -4 44 -9 55 -10 20 -3 221 -42 260 -51 31 -7 88
-16 108 -17 9 -1 17 -5 17 -10 0 -4 3 -6 8 -3 4 2 34 -2 67 -10 33 -8 71 -16
85 -19 14 -2 99 -23 190 -46 91 -22 174 -43 185 -45 31 -8 38 -10 65 -17 14
-4 43 -13 65 -19 22 -5 47 -13 55 -16 8 -3 24 -7 35 -9 11 -2 65 -18 120 -35
55 -17 108 -33 117 -35 9 -1 36 -10 60 -18 49 -18 53 -19 93 -29 17 -4 39 -11
50 -16 11 -5 56 -21 100 -35 44 -15 87 -29 95 -33 8 -3 17 -6 20 -7 3 -1 12
-4 20 -7 42 -16 56 -21 65 -24 11 -2 214 -80 293 -112 28 -12 52 -19 52 -16 0
4 6 2 13 -4 10 -9 64 -32 252 -107 11 -5 22 -9 25 -10 3 -1 19 -7 35 -14 17
-7 38 -13 48 -14 9 -1 17 -4 17 -7 0 -4 6 -7 13 -8 6 0 73 -21 147 -47 116
-39 229 -73 265 -79 6 -1 15 -5 21 -9 7 -4 28 -9 48 -12 20 -2 41 -7 46 -10 6
-4 23 -9 38 -11 15 -3 63 -14 107 -25 44 -11 94 -21 110 -24 17 -2 49 -9 72
-15 24 -5 46 -9 50 -8 5 0 15 -1 23 -5 14 -5 207 -37 260 -42 14 -2 45 -6 70
-9 25 -4 72 -9 105 -12 33 -3 76 -7 95 -9 188 -21 760 -28 965 -12 189 14 338
30 475 51 14 2 45 7 70 10 25 3 56 8 70 11 14 3 41 8 60 10 19 2 45 7 58 10
49 11 68 15 97 20 25 5 41 8 95 20 3 1 21 5 40 10 19 5 42 9 50 11 19 3 38 8
135 33 44 12 89 24 100 26 101 23 547 173 645 217 14 6 34 14 45 19 102 41
131 54 135 58 3 4 13 7 23 9 10 2 48 18 85 36 37 18 99 48 137 67 39 18 72 37
73 41 2 5 12 8 22 8 9 0 23 7 30 15 6 8 21 17 32 21 56 17 458 269 458 286 0
4 7 8 15 8 8 0 15 5 15 10 0 6 5 10 11 10 6 0 16 6 23 13 7 6 25 21 40 32 40
29 197 166 218 190 5 6 34 37 64 69 30 33 71 85 92 115 20 31 40 58 45 59 4 2
7 8 7 13 0 6 10 31 22 57 32 70 36 177 9 230 -54 105 -175 177 -411 242 -41
12 -86 23 -100 25 -14 2 -56 10 -95 19 -38 8 -88 18 -109 21 -21 3 -48 7 -60
10 -12 3 -39 7 -61 9 -22 3 -51 7 -65 10 -14 3 -47 8 -75 11 -27 3 -75 9 -107
13 -31 5 -63 7 -72 6 -9 -1 -16 1 -16 5 0 3 -17 6 -37 5 -21 0 -42 1 -46 4 -5
2 -27 6 -50 8 -63 5 -168 14 -202 18 -16 2 -64 7 -105 11 -41 3 -95 8 -120 11
-25 2 -70 6 -100 9 -30 3 -75 8 -100 11 -25 2 -63 6 -85 9 -22 2 -69 7 -105
11 -36 4 -86 7 -112 8 -27 0 -48 3 -48 6 0 3 -17 5 -38 6 -20 1 -68 4 -107 8
-38 4 -88 9 -110 12 -22 2 -65 6 -95 9 -30 4 -71 8 -90 9 -19 2 -35 4 -35 5 0
1 -25 4 -55 6 -30 2 -73 6 -95 9 -22 3 -71 8 -110 12 -38 3 -79 8 -90 10 -22
4 -43 7 -240 29 -27 3 -62 8 -77 10 -50 9 -82 13 -143 21 -89 10 -106 12 -155
19 -81 11 -95 13 -100 15 -3 1 -9 2 -13 1 -5 -1 -34 3 -65 8 -57 10 -114 19
-162 26 -14 2 -56 9 -95 15 -38 6 -83 13 -100 16 -16 2 -41 6 -55 9 -14 3 -41
7 -60 10 -19 3 -57 10 -85 15 -27 5 -63 12 -80 15 -16 3 -40 7 -52 9 -11 3
-43 8 -70 12 -26 3 -55 8 -63 10 -48 11 -251 51 -293 58 -15 3 -35 7 -45 10
-9 3 -28 7 -42 10 -14 3 -47 10 -75 16 -27 6 -61 12 -75 15 -14 2 -36 7 -50
10 -14 4 -45 11 -70 16 -78 16 -413 99 -464 114 -27 9 -51 13 -54 10 -2 -2
-13 0 -24 6 -11 6 -27 12 -36 14 -33 6 -147 36 -162 42 -8 3 -19 7 -25 8 -5 2
-37 10 -70 19 -33 9 -71 19 -84 22 -13 3 -32 9 -43 15 -10 5 -18 8 -18 5 0 -3
-15 0 -32 5 -46 14 -97 27 -138 35 -14 3 -33 7 -42 10 -21 6 -26 7 -173 39
-66 14 -135 28 -154 31 -18 3 -43 8 -55 11 -11 3 -36 6 -53 7 -18 0 -33 5 -33
10 0 4 -6 6 -14 3 -8 -3 -17 -3 -20 0 -3 3 -22 7 -43 9 -47 5 -98 12 -98 14 0
1 -13 3 -30 5 -16 2 -48 6 -70 9 -22 3 -62 8 -90 11 -27 3 -66 8 -85 11 -19 3
-57 7 -85 9 -27 2 -72 7 -100 10 -83 9 -165 15 -270 20 -55 3 -109 7 -120 9
-11 2 -28 -1 -37 -5 -9 -5 -19 -5 -22 0 -7 10 -566 9 -583 -2 -6 -4 -13 -2
-15 4 -2 5 -6 8 -8 6z"/>
</g>
</svg>
